<?xml version="1.0" encoding="UTF-8"?>
<svg id="Layer_2" data-name="Layer 2" xmlns="http://www.w3.org/2000/svg" xmlns:xlink="http://www.w3.org/1999/xlink" viewBox="0 0 220.08 48.13">
  <defs>
    <style>
      .cls-1 {
        fill: url(#linear-gradient);
      }

      .cls-1, .cls-2 {
        stroke-width: 0px;
      }

      .cls-2 {
        fill: #edf0f1;
      }
    </style>
    <linearGradient id="linear-gradient" x1="6.53" y1="37.46" x2="37.45" y2="6.53" gradientUnits="userSpaceOnUse">
      <stop offset=".01" stop-color="#ea2d01"/>
      <stop offset=".54" stop-color="#f6481c"/>
      <stop offset=".61" stop-color="#f65e38"/>
      <stop offset=".74" stop-color="#f8866a"/>
      <stop offset=".85" stop-color="#f9a38e"/>
      <stop offset=".94" stop-color="#f9b5a4"/>
      <stop offset="1" stop-color="#fabcad"/>
    </linearGradient>
  </defs>
  <g id="Layer_1-2" data-name="Layer 1">
    <g>
      <path class="cls-1" d="M47.92,17.02C41.39,10.48,37.65,6.73,31.11.19c-.12-.12-.3-.19-.47-.19H10.28c-.36,0-.66.29-.66.66v7.34h-.15C8.73,3.67,5.11.32.65.02.29.02,0,.32,0,.67v29.96c0,.18.07.36.19.48,6.54,6.54,10.28,10.28,16.81,16.82.12.12.3.2.48.2h21.67c.18,0,.36-.09.48-.21,3.25-3.25,5.27-5.27,8.3-8.3.41-.41.12-1.13-.46-1.13h-8.02c.06-.03.11-.07.16-.12,3.03-3.03,5.06-5.06,8.3-8.3.12-.12.19-.29.19-.47l.02-12.12c0-.17-.07-.34-.2-.47ZM10.28,38.51c-.36,0-.66-.3-.66-.67V10.28c0-.36.29-.65.65-.65h27.56c.36,0,.67.29.67.66l-.02,27.64c0,.28.16.48.37.58H10.28Z"/>
      <g>
        <path class="cls-2" d="M78.21,32.92v2.75s-.03.05-.05.05h-13.93s-.05-.02-.05-.05V12.76s.03-.06.05-.06h3.5s.06.03.06.06v20.04s.02.06.05.06h10.31s.05.03.05.05Z"/>
        <path class="cls-2" d="M95.05,22.9c-.66-1.18-1.58-2.13-2.78-2.83-1.2-.7-2.59-1.05-4.19-1.05s-3.09.37-4.34,1.09c-1.25.73-2.22,1.74-2.93,3.04-.7,1.31-1.05,2.8-1.05,4.49s.35,3.17,1.06,4.44c.71,1.27,1.69,2.26,2.92,2.97,1.24.71,2.68,1.06,4.29,1.06,1.3,0,2.45-.23,3.49-.71,1.03-.47,1.89-1.12,2.58-1.94.68-.8,1.16-1.7,1.44-2.71.01-.04-.02-.07-.05-.07h-3.54s-.04.01-.05.04c-.31.73-.79,1.31-1.43,1.74-.66.44-1.47.66-2.43.66-.86,0-1.64-.2-2.36-.6-.73-.39-1.3-.98-1.73-1.76-.35-.65-.56-1.42-.61-2.3,0-.03.02-.06.05-.06h12.53s.05-.03.05-.05c.04-.28.06-.55.06-.79v-.71c0-1.46-.33-2.79-.99-3.97ZM92.36,25.99h-8.9s-.06-.03-.06-.07c.1-.65.28-1.21.57-1.69.44-.73,1.02-1.29,1.75-1.67.72-.39,1.49-.58,2.33-.58,1.21,0,2.22.36,3.04,1.09.81.71,1.25,1.67,1.33,2.86,0,.03-.03.06-.06.06Z"/>
        <path class="cls-2" d="M115.58,12.05h-3.51s-.05.03-.05.05v9.28c0,.14-.18.2-.26.09-.52-.7-1.19-1.26-2-1.69-.97-.5-2.09-.76-3.36-.76-1.58,0-2.97.37-4.2,1.1-1.22.73-2.16,1.74-2.86,3.02-.69,1.28-1.03,2.74-1.03,4.39s.34,3.08,1.03,4.39c.69,1.31,1.64,2.33,2.86,3.07,1.22.75,2.6,1.12,4.16,1.12,1.42,0,2.6-.29,3.52-.89.77-.49,1.4-1.05,1.87-1.65.08-.11.26-.04.26.09v2s.03.06.05.06h3.51s.05-.03.05-.06V12.1s-.03-.05-.05-.05ZM111.4,30.36c-.43.81-1.02,1.44-1.77,1.91-.76.46-1.63.69-2.62.69s-1.82-.23-2.58-.69c-.75-.46-1.36-1.1-1.79-1.91-.43-.81-.65-1.75-.65-2.83s.22-1.99.65-2.8c.44-.81,1.04-1.44,1.79-1.89.76-.45,1.61-.67,2.58-.67s1.86.22,2.62.67c.76.45,1.34,1.08,1.77,1.89.43.81.64,1.75.64,2.83s-.21,1.98-.64,2.79Z"/>
        <path class="cls-2" d="M128.97,19.47v2.94s-.03.06-.05.06h-5.22s-.09.04-.09.08c0,.03.01.04.03.07.4.41.81.82,1.21,1.22,0,.01.01.03.01.04v6.64c0,.64.06,1.1.17,1.4.1.3.33.49.65.58.33.08.79.13,1.38.13h1.69s.06.03.06.05v2.98s-.03.06-.06.06h-2.87c-1.01,0-1.86-.12-2.54-.37-.69-.24-1.22-.7-1.56-1.38-.35-.68-.53-1.66-.53-2.95v-8.5s-.03-.05-.06-.05h-2.71s-.05-.03-.05-.06v-2.94s.02-.05.05-.05c1.53-.03,2.77-1.29,2.77-2.83v-1.29s.03-.05.05-.05h3.5s.05.03.05.05v4.07s.03.05.05.05h4s.05.03.05.05Z"/>
        <path class="cls-2" d="M141.8,19.34v3.14s-.03.05-.06.05h-2.57c-.75,0-1.38.2-1.91.61-.53.41-.92,1.03-1.2,1.89-.27.86-.41,1.94-.41,3.25v7.38s-.02.05-.05.05h-3.5s-.05-.02-.05-.05v-16.19s.03-.05.05-.05h3.5s.05.02.05.05v1.94c0,.15.2.2.27.07.26-.45.56-.84.9-1.17.71-.69,1.62-1.03,2.71-1.03h2.21s.06.02.06.05Z"/>
        <path class="cls-2" d="M158.65,23.08c-.73-1.28-1.72-2.28-2.96-2.99-1.24-.71-2.64-1.07-4.22-1.07s-2.93.36-4.19,1.07-2.26,1.71-2.99,2.99c-.74,1.28-1.1,2.78-1.1,4.49s.37,3.18,1.1,4.47c.73,1.29,1.73,2.3,2.97,3.01,1.25.71,2.65,1.06,4.21,1.06s2.96-.35,4.21-1.06c1.25-.71,2.24-1.72,2.97-3.01.73-1.3,1.1-2.78,1.1-4.47s-.37-3.21-1.1-4.49ZM155.39,30.58c-.42.8-.99,1.4-1.67,1.81-.69.41-1.44.61-2.25.61s-1.56-.2-2.25-.61c-.69-.41-1.25-1.01-1.68-1.81-.43-.8-.64-1.81-.64-3.01s.22-2.21.64-3.01c.43-.8.99-1.41,1.69-1.81.71-.4,1.45-.61,2.24-.61s1.56.2,2.25.61c.69.41,1.25,1.01,1.67,1.81.43.8.64,1.8.64,3.01s-.21,2.2-.64,3.01Z"/>
        <path class="cls-2" d="M177.8,26.39v9.28s-.03.05-.05.05h-3.5s-.06-.02-.06-.05v-8.92c0-1.54-.31-2.69-.94-3.47-.62-.78-1.57-1.17-2.84-1.17s-2.32.45-3.16,1.35c-.83.9-1.25,2.18-1.25,3.85v8.36s-.03.05-.05.05h-3.5s-.06-.02-.06-.05v-16.19s.03-.05.06-.05h3.5s.05.02.05.05v2.04c0,.14.18.2.26.08.33-.48.73-.9,1.2-1.27,1.11-.87,2.44-1.3,3.99-1.3,1.99,0,3.55.62,4.67,1.86,1.12,1.24,1.68,3.07,1.68,5.51Z"/>
        <path class="cls-2" d="M181.04,12.61h3.77s.05.02.05.05v3.8s-.02.05-.05.05h-3.77s-.06-.03-.06-.06v-3.8s.03-.06.06-.06Z"/>
        <path class="cls-2" d="M181.17,19.42h3.51s.05.02.05.05v16.19s-.03.06-.06.06h-3.5s-.05-.02-.05-.05v-16.19s.02-.05.05-.05Z"/>
        <path class="cls-2" d="M203.59,30.3c-.36,1.72-1.22,3.12-2.6,4.19-1.39,1.09-3.1,1.63-5.11,1.63-1.62,0-3.06-.36-4.32-1.08-1.26-.72-2.25-1.73-2.98-3.01-.72-1.28-1.09-2.77-1.09-4.46s.36-3.17,1.09-4.45c.72-1.28,1.71-2.29,2.98-3.01,1.26-.72,2.7-1.08,4.32-1.08,2.02,0,3.72.53,5.09,1.58,1.37,1.04,2.24,2.45,2.62,4.24,0,.03-.02.07-.05.07h-3.64s-.05-.02-.05-.04c-.23-.86-.69-1.53-1.4-2.01-.72-.49-1.59-.74-2.6-.74-.83,0-1.6.22-2.3.64-.71.42-1.27,1.04-1.7,1.84-.43.8-.64,1.79-.64,2.97s.21,2.16.64,2.98c.43.82.99,1.44,1.7,1.86.7.42,1.47.62,2.3.62,1.01,0,1.87-.24,2.6-.72.71-.48,1.18-1.15,1.4-2.03,0-.03.03-.04.05-.04h3.64s.06.04.05.07Z"/>
        <path class="cls-2" d="M220.08,30.76c0,1.05-.27,1.98-.81,2.78-.53.8-1.31,1.43-2.32,1.89-1.01.46-2.22.69-3.65.69-2.06,0-3.78-.48-5.15-1.44-1.35-.95-2.13-2.29-2.34-4.01,0-.03.02-.07.06-.07h3.6s.05.02.05.04c.16.79.58,1.42,1.27,1.9.7.48,1.58.72,2.63.72s1.82-.21,2.38-.62c.56-.42.84-.93.84-1.55,0-.46-.13-.8-.38-1.02-.25-.22-.57-.38-.95-.49-.38-.11-.78-.2-1.2-.26-.37-.04-.81-.11-1.32-.2-.5-.09-.94-.18-1.32-.26-.83-.15-1.62-.41-2.35-.79-.73-.37-1.33-.88-1.79-1.53-.46-.65-.69-1.46-.69-2.45,0-1.43.54-2.62,1.61-3.6,1.07-.98,2.59-1.46,4.57-1.46s3.52.43,4.72,1.3c1.18.86,1.86,2.12,2.05,3.8,0,.03-.02.07-.05.07h-3.44s-.05-.02-.05-.05c-.07-.76-.41-1.33-1.01-1.69-.61-.37-1.35-.56-2.2-.56-.9,0-1.61.19-2.14.56-.53.37-.79.83-.79,1.38,0,1.01.8,1.66,2.4,1.94.24.04.52.09.84.15.32.05.65.11.99.15s.63.1.87.16c.57.09,1.15.22,1.74.39.59.18,1.14.43,1.64.75.5.33.91.77,1.22,1.32s.46,1.24.46,2.07Z"/>
      </g>
    </g>
  </g>
</svg>